<?xml version="1.0" encoding="UTF-8"?>
<svg id="Layer_1" xmlns="http://www.w3.org/2000/svg" version="1.1" viewBox="0 0 1366 768">
  <!-- Generator: Adobe Illustrator 30.1.0, SVG Export Plug-In . SVG Version: 2.1.1 Build 136)  -->
  <defs>
    <style>
      .st0 {
        fill: none;
      }

      .st1 {
        fill: #0b0e14;
      }
    </style>
  </defs>
  <path class="st1" d="M987.45,271.42v225.16c0,15.54-6.3,29.62-16.49,39.8-10.18,10.19-24.25,16.49-39.8,16.49h-9.2c-15.54,0-29.61,6.3-39.8,16.49-10.19,10.18-16.49,24.26-16.49,39.8V215.13h-243.55s-121.78,0-121.78,0h0s-56.29,0-56.29,0c15.54,0,29.62-6.3,39.8-16.49,10.19-10.18,16.49-24.25,16.49-39.79h0c0-6.32,1.04-12.38,2.95-18.05.3-.88.61-1.74.95-2.59,2.86-7.24,7.17-13.75,12.59-19.16,10.18-10.19,24.25-16.49,39.8-16.49h252.76c31.08,0,56.28,25.2,56.28,56.28s25.21,56.29,56.29,56.29h9.2c31.09,0,56.29,25.2,56.29,56.29Z"/>
  <path class="st0" d="M500.33,102.56v56.29c0,15.54-6.3,29.61-16.49,39.79-10.18,10.19-24.26,16.49-39.8,16.49h-65.49v-112.57h121.78Z"/>
  <path class="st0" d="M500.33,158.84h0c0,15.55-6.3,29.62-16.49,39.8-10.18,10.19-24.26,16.49-39.8,16.49h-9.2c-31.09,0-56.29-25.2-56.29-56.29,0-15.54,6.3-29.61,16.49-39.8s24.26-16.48,39.8-16.48h9.2c31.09,0,56.29,25.2,56.29,56.28Z"/>
  <path class="st0" d="M556.62,102.56c-15.55,0-29.62,6.3-39.8,16.49-5.42,5.41-9.73,11.92-12.59,19.16-.34.85-.65,1.71-.95,2.59-1.91,5.67-2.95,11.73-2.95,18.04v-56.28h56.29Z"/>
  <path class="st0" d="M865.66,102.56v56.28c0-31.08-25.2-56.28-56.28-56.28h56.28Z"/>
  <path class="st0" d="M987.45,102.56v112.57h-65.49c-31.08,0-56.29-25.2-56.29-56.29v-56.28h121.78Z"/>
  <path class="st0" d="M987.45,158.84c0,15.54-6.3,29.62-16.49,39.8-10.18,10.19-24.25,16.49-39.8,16.49h-9.2c-31.08,0-56.29-25.2-56.29-56.29,0-15.54,6.3-29.61,16.49-39.8,10.19-10.18,24.26-16.48,39.8-16.48h9.2c31.09,0,56.29,25.2,56.29,56.28Z"/>
  <path class="st0" d="M434.84,215.13c-15.54,0-29.62,6.3-39.8,16.49-10.19,10.18-16.49,24.26-16.49,39.8v-56.29h56.29Z"/>
  <rect class="st0" x="500.33" y="215.14" width="121.78" height="112.57"/>
  <path class="st0" d="M622.11,271.42c0,15.54-6.3,29.62-16.49,39.8-10.18,10.19-24.25,16.49-39.8,16.49h-9.2c-31.09,0-56.29-25.2-56.29-56.29,0-15.54,6.3-29.61,16.49-39.8s24.25-16.48,39.8-16.48h9.2c31.09,0,56.29,25.2,56.29,56.28Z"/>
  <rect class="st0" x="622.11" y="215.13" width="121.78" height="112.58"/>
  <path class="st0" d="M743.9,271.42c0,15.54-6.3,29.62-16.49,39.8-10.19,10.19-24.26,16.49-39.8,16.49h-9.21c-31.09-.01-56.28-25.2-56.28-56.29,0-15.54,6.3-29.62,16.49-39.8,10.18-10.19,24.26-16.49,39.8-16.49h9.2c31.08,0,56.29,25.2,56.29,56.29Z"/>
  <rect class="st0" x="743.9" y="215.13" width="121.77" height="112.58"/>
  <path class="st0" d="M865.66,271.42c0,15.54-6.3,29.62-16.48,39.8s-24.26,16.49-39.8,16.49h-9.21c-31.08,0-56.28-25.2-56.28-56.29,0-15.54,6.3-29.62,16.49-39.8,10.18-10.19,24.25-16.49,39.79-16.49h9.21c31.08,0,56.28,25.2,56.28,56.29Z"/>
  <path class="st0" d="M987.45,215.13v56.29c0-31.09-25.2-56.29-56.29-56.29h56.29Z"/>
  <rect class="st0" x="500.33" y="327.71" width="121.78" height="112.58"/>
  <rect class="st0" x="500.33" y="327.71" width="121.78" height="112.58" rx="56.29" ry="56.29"/>
  <rect class="st0" x="622.11" y="327.71" width="121.78" height="112.58"/>
  <rect class="st0" x="622.11" y="327.71" width="121.78" height="112.58" rx="56.29" ry="56.29"/>
  <rect class="st0" x="743.9" y="327.71" width="121.77" height="112.58"/>
  <rect class="st0" x="743.89" y="327.71" width="121.78" height="112.58" rx="56.29" ry="56.29"/>
  <path class="st0" d="M434.84,552.87h-56.29v-56.29c0,31.09,25.2,56.29,56.29,56.29Z"/>
  <rect class="st0" x="500.33" y="440.29" width="121.78" height="112.58"/>
  <path class="st0" d="M622.11,496.58c0,15.54-6.3,29.62-16.49,39.8-10.18,10.19-24.26,16.49-39.8,16.49h-9.2c-31.09,0-56.29-25.2-56.29-56.29,0-15.54,6.3-29.62,16.49-39.8,10.18-10.19,24.26-16.49,39.8-16.49h9.2c31.09,0,56.29,25.2,56.29,56.29Z"/>
  <rect class="st0" x="622.11" y="440.29" width="121.78" height="112.58"/>
  <path class="st0" d="M743.9,496.58c0,15.54-6.3,29.62-16.49,39.8-10.19,10.19-24.26,16.49-39.8,16.49h-9.2c-31.09,0-56.29-25.2-56.29-56.29,0-15.54,6.3-29.62,16.49-39.8,10.18-10.19,24.25-16.49,39.79-16.49h9.21c31.08,0,56.29,25.2,56.29,56.29Z"/>
  <rect class="st0" x="743.9" y="440.29" width="121.77" height="112.58"/>
  <path class="st0" d="M865.66,496.58c0,15.54-6.3,29.62-16.48,39.8-10.19,10.19-24.26,16.49-39.8,16.49h-9.21c-31.08,0-56.28-25.2-56.28-56.29,0-15.54,6.3-29.62,16.49-39.8,10.18-10.19,24.25-16.49,39.79-16.49h9.21c31.08,0,56.28,25.2,56.28,56.29Z"/>
  <path class="st0" d="M987.45,496.58v56.29h-56.29c15.55,0,29.62-6.3,39.8-16.49,10.19-10.18,16.49-24.26,16.49-39.8Z"/>
  <path class="st0" d="M500.33,609.16v56.28h-121.78v-112.57h65.49c31.09,0,56.29,25.2,56.29,56.29Z"/>
  <path class="st0" d="M500.33,609.16c0,15.54-6.3,29.61-16.49,39.8s-24.26,16.48-39.8,16.48h-9.2c-31.09,0-56.29-25.2-56.29-56.28,0-15.54,6.3-29.62,16.49-39.8,10.18-10.19,24.26-16.49,39.8-16.49h9.2c31.09,0,56.29,25.2,56.29,56.29Z"/>
  <path class="st0" d="M556.62,665.44h-56.29v-56.28c0,31.08,25.2,56.28,56.29,56.28Z"/>
  <path class="st1" d="M865.66,552.87v56.29c0,15.54-6.3,29.61-16.48,39.8-10.19,10.18-24.26,16.48-39.8,16.48h-252.76c-31.09,0-56.29-25.2-56.29-56.28s-25.2-56.29-56.29-56.29h-9.2c-31.09,0-56.29-25.2-56.29-56.29v-225.16c0-15.54,6.3-29.62,16.49-39.8,10.18-10.19,24.26-16.49,39.8-16.49h65.49v337.74h365.33Z"/>
  <path class="st0" d="M865.66,609.16v56.28h-56.28c15.54,0,29.61-6.3,39.8-16.48,10.18-10.19,16.48-24.26,16.48-39.8Z"/>
  <path class="st0" d="M987.45,552.87v112.57h-121.78v-56.28c0-15.54,6.3-29.62,16.49-39.8,10.19-10.19,24.26-16.49,39.8-16.49h65.49Z"/>
  <path class="st0" d="M987.45,609.16c0,15.54-6.3,29.61-16.49,39.8-10.18,10.18-24.25,16.48-39.8,16.48h-9.2c-31.08,0-56.29-25.2-56.29-56.28,0-15.54,6.3-29.62,16.49-39.8,10.19-10.19,24.26-16.49,39.8-16.49h9.2c31.09,0,56.29,25.2,56.29,56.29Z"/>
</svg>